# xmcd CD database file generated by Grip 3.3.1
# 
# Track frame offsets:
#       150
#       22977
#       52802
#       75495
#       106980
#       132612
#       154912
#       167822
# 
# Disc length: 2502 seconds
# 
# Revision: 1
# Processed by: cddbd v1.5.1PL2 Copyright (c) Steve Scherf et al.
# Submitted via: Grip 3.3.1
# 
DISCID=5b09c408
DTITLE=Franck Tortiller - Vitis Vinifera
DYEAR=1997
DGENRE=Jazz
TTITLE0=Tout ça parce qu'au bois de Chaville
TTITLE1=Vitis vinifera
TTITLE2=Aller retour
TTITLE3=Demain peut-être...
TTITLE4=Les amoureuses
TTITLE5=A ciel ouvert
TTITLE6=De décembre à juillet
TTITLE7=Blanc sur rouge
EXTD=YEAR: 1997
EXTT0=
EXTT1=
EXTT2=
EXTT3=
EXTT4=
EXTT5=
EXTT6=
EXTT7=
PLAYORDER=
